<?xml version="1.0" encoding="UTF-8"?>
<svg width="512" height="512" viewBox="0 0 24 24" xmlns="http://www.w3.org/2000/svg">
    <!-- Fondo circular con gradiente en grises -->
    <defs>
        <linearGradient id="grad" x1="0%" y1="0%" x2="100%" y2="100%">
            <stop offset="0%" style="stop-color:#424242;stop-opacity:1" />
            <stop offset="100%" style="stop-color:#212121;stop-opacity:1" />
        </linearGradient>
        <!-- Sombra suave -->
        <filter id="shadow" x="-20%" y="-20%" width="140%" height="140%">
            <feGaussianBlur in="SourceAlpha" stdDeviation="0.5"/>
            <feOffset dx="0" dy="0.5" result="offsetblur"/>
            <feFlood flood-color="rgba(0,0,0,0.2)"/>
            <feComposite in2="offsetblur" operator="in"/>
            <feMerge>
                <feMergeNode/>
                <feMergeNode in="SourceGraphic"/>
            </feMerge>
        </filter>
    </defs>
    
    <!-- Círculo de fondo -->
    <circle cx="12" cy="12" r="11" fill="url(#grad)" filter="url(#shadow)"/>
    
    <!-- Símbolo de base de datos -->
    <g fill="#FFFFFF" transform="translate(7,6)" filter="url(#shadow)" opacity="0.95">
        <!-- Capas de la base de datos -->
        <path d="M5,0.5C2.2,0.5,0,1.4,0,2.5v1c0,1.1,2.2,2,5,2s5-0.9,5-2v-1C10,1.4,7.8,0.5,5,0.5z"/>
        <path d="M5,6.5C2.2,6.5,0,5.9,0,5.1V7c0,1.1,2.2,2,5,2s5-0.9,5-2V5.1C10,5.9,7.8,6.5,5,6.5z"/>
        <path d="M5,10C2.2,10,0,9.4,0,8.6V11c0,1.1,2.2,2,5,2s5-0.9,5-2V8.6C10,9.4,7.8,10,5,10z"/>
    </g>
    
    <!-- Flechas de sincronización -->
    <g transform="translate(12,12)" fill="#F5F5F5" filter="url(#shadow)" opacity="0.9">
        <path d="M5.5,3.5L8,1L5.5,-1.5L5.5,0.5C2.5,0.5,0,3,0,6L1,6C1,3.5,3,1.5,5.5,1.5L5.5,3.5Z"/>
        <path d="M-5.5,-3.5L-8,-1L-5.5,1.5L-5.5,-0.5C-2.5,-0.5,0,-3,0,-6L-1,-6C-1,-3.5,-3,-1.5,-5.5,-1.5L-5.5,-3.5Z"/>
    </g>
</svg>